<?xml version="1.0" encoding="utf-8"?>
<!-- Generator: Adobe Illustrator 19.0.0, SVG Export Plug-In . SVG Version: 6.00 Build 0)  -->
<svg version="1.1" id="Layer_1" xmlns="http://www.w3.org/2000/svg" xmlns:xlink="http://www.w3.org/1999/xlink" x="0px" y="0px"
	 viewBox="0 0 207.6 103.8" style="enable-background:new 0 0 207.6 103.8;" xml:space="preserve">
<style type="text/css">
	.st0{fill:#FFFFFF;}
	.st1{fill:#545FAB;}
</style>
<g>
	<rect x="155.7" y="51.9" class="st0" width="51.9" height="51.9"/>
	<rect x="103.8" y="51.9" class="st0" width="51.9" height="51.9"/>
	<rect class="st0" width="51.9" height="51.9"/>
	<rect x="36.4" y="7.8" class="st1" width="8" height="36.4"/>
	<rect x="103.8" class="st0" width="51.9" height="51.9"/>
	<rect x="51.9" class="st0" width="51.9" height="51.9"/>
	<path class="st1" d="M114.1,80.2V59.7h7.9V80c0,5.8,2.9,8.9,7.7,8.9c4.8,0,7.7-2.9,7.7-8.6V59.7h7.9v20.2
		c0,10.9-6.1,16.2-15.7,16.2C120,96.1,114.1,90.7,114.1,80.2z"/>
	<path class="st1" d="M177.7,77.5l-12.2-17.9h9.3l7.6,11.8l7.7-11.8h9.1l-12.2,17.8L199.8,96h-9.3l-8.2-12.5L174.1,96h-9.1
		L177.7,77.5z"/>
	<g>
		<path class="st1" d="M113.1,7.8h14.1c11.4,0,19.2,7.8,19.2,18v0.1c0,10.2-7.9,18.1-19.2,18.1h-14.1V7.8z M127.2,36.8
			c6.5,0,10.9-4.4,10.9-10.8v-0.1c0-6.4-4.4-10.9-10.9-10.9h-6.2v21.8H127.2z"/>
	</g>
	<g>
		<path class="st1" d="M61.7,7.8h7.4l17,22.4V7.8H94v36.4h-6.8L69.6,21v23.1h-7.9V7.8z"/>
	</g>
	<rect x="17.8" y="36.5" class="st1" width="7.6" height="7.6"/>
</g>
</svg>
